<svg width="25" height="25" viewBox="0 0 25 25" fill="none" xmlns="http://www.w3.org/2000/svg">
<path d="M2.08337 12.7125C2.08337 10.3281 2.08337 9.13647 2.62504 8.14897C3.16462 7.16043 4.15317 6.54793 6.12921 5.32084L8.21254 4.02814C10.3011 2.73126 11.3459 2.08334 12.5 2.08334C13.6542 2.08334 14.698 2.73126 16.7875 4.02814L18.8709 5.32084C20.8469 6.54793 21.8355 7.16043 22.3761 8.14897C22.9167 9.13647 22.9167 10.3281 22.9167 12.7115V14.2969C22.9167 18.3594 22.9167 20.3917 21.6959 21.6542C20.4761 22.9167 18.5115 22.9167 14.5834 22.9167H10.4167C6.48858 22.9167 4.524 22.9167 3.30421 21.6542C2.08337 20.3917 2.08337 18.3604 2.08337 14.2969V12.7125Z" stroke="white" stroke-width="1.75"/>
<path d="M12.5 15.625V18.75" stroke="white" stroke-width="1.75" stroke-linecap="round"/>
</svg>
