<svg width="21" height="24" viewBox="0 0 21 24" fill="none" xmlns="http://www.w3.org/2000/svg">
<path d="M5.95215 16.4H10.3521M5.95215 10.9H14.7521" stroke="white" stroke-width="1.5" stroke-linecap="round"/>
<path d="M5.4043 2.64999C3.69292 2.70133 2.67257 2.89182 1.96655 3.59849C1 4.56594 1 6.12302 1 9.23719V16.3938C1 19.508 1 21.0651 1.96655 22.0325C2.9331 23 4.48874 23 7.6 23H13.1C16.2113 23 17.7669 23 18.7334 22.0325C19.7 21.0651 19.7 19.508 19.7 16.3938V9.23719C19.7 6.12302 19.7 4.56594 18.7334 3.5985C18.0275 2.89182 17.0071 2.70133 15.2957 2.64999" stroke="white" stroke-width="1.5"/>
<path d="M5.40002 2.925C5.40002 1.86185 6.26189 1 7.32502 1H13.375C14.4382 1 15.3 1.86185 15.3 2.925C15.3 3.98815 14.4382 4.85 13.375 4.85H7.32502C6.26189 4.85 5.40002 3.98815 5.40002 2.925Z" stroke="white" stroke-width="1.5" stroke-linejoin="round"/>
</svg>
